<?xml version="1.0" encoding="UTF-8"?>
<svg version="1.1" viewBox="0 0 2048 870" width="1280" height="1280" xmlns="http://www.w3.org/2000/svg">
<path transform="translate(0)" d="m0 0h2048v870h-2048z"/>
<path transform="translate(407,74)" d="m0 0h12l14 2 16 5 12 6 13 9 9 8 8 10 8 13 6 15 3 14v30l-4 17-8 17-8 11-9 10-12 10-10 7-1 8-1 1-9 1-1 12h25l6 4 3 6v9l-1 5h135l12 2 10 6 8 9 4 9 1 7v64h6v193h-6v38l-2 12-6 10-9 8-11 4-8 1-194 1-22 6-23 4-8 1h-27l-27-4-19-5-6-2-198-1-12-3-9-6-7-8-4-10-1-5-1-40-5-1v-193h6v-65l4-13 7-9 10-7 6-2 7-1h81v-8l3-6 3-3 4-1h29l6 3 3 5 1 11 3-1 64-1 20-6 24-4 13-1 2-1 3-6 5-5h26v-12l-9-1-2-3-1-7-15-10-12-11-10-13-8-16-5-16-2-14v-11l2-15 7-21 8-14 9-11 8-8 14-10 15-7 13-4z" fill="#FEFFFE"/>
<path transform="translate(342,352)" d="m0 0h21l18 3 19 6 19 9 13 9 14 12 11 12 10 15 8 16 6 18 3 15 1 9v21l-3 18-4 15-8 18-8 13-7 9-9 10-12 11-15 10-16 8-21 7-11 2-11 1h-18l-20-3-16-5-13-5-14-8-13-10-10-9-9-10-9-13-9-17-6-17-3-12-2-17v-13l2-19 4-16 6-15 6-12 8-12 9-11 9-9 13-10 13-8 17-8 17-5 10-2z"/>
<path transform="translate(334,304)" d="m0 0h33l20 3 20 5 19 7 19 10 17 12 13 11 14 14 13 17 8 13 8 16 6 15 6 22 3 19 1 22-2 21-4 20-5 16-7 17-9 17-10 14-9 11-17 17-17 13-14 9-24 11-19 6-22 4-7 1h-31l-22-3-25-7-15-6-19-10-16-12-10-8-17-17-12-16-9-15-10-21-6-18-5-25-2-19v-10l3-24 5-23 8-21 8-16 10-16 11-13 7-8 10-10 14-11 15-10 15-8 21-8 24-6zm8 48-15 2-19 5-12 5-17 9-14 11-10 9-9 10-10 15-8 16-6 17-3 17-1 12v13l3 21 4 15 8 18 8 14 9 11 9 10 9 8 16 11 16 8 18 6 15 3 9 1h18l17-2 15-4 16-6 16-9 12-9 12-11 10-11 10-15 8-17 5-16 3-14 1-8v-21l-3-20-6-20-8-16-9-14-12-14-12-11-13-9-17-9-17-6-17-4-8-1z"/>
<path transform="translate(344,401)" d="m0 0h16l16 3 12 5 11 6 10 8 8 8 7 10 7 14 4 15 1 8v16l-3 16-5 12-6 11-8 10-8 8-15 10-19 7-11 2h-20l-17-4-13-6-11-7-10-9-9-11-8-15-5-16-1-6v-20l3-14 6-15 9-14 9-10 10-8 10-6 18-6z" fill="#FEFFFE"/>
<path transform="translate(401,86)" d="m0 0h21l19 5 12 5 13 9 10 9 8 11 8 16 4 13 1 5v24l-4 15-7 16-8 11-5 6-11 9-4 3h-2l-1-19-6-1-14 7-13 3h-19l-16-4-13-6h-4l-1 2-1 18-5-2-16-15-6-8-8-15-4-14-2-11v-14l3-16 5-14 9-15 15-15 14-9 15-6z"/>
<path transform="translate(170,412)" d="m0 0h2l-2 9-5 16-5 25-1 9v29l3 21 5 21 7 19 10 21v1h-123v-170z"/>
<path transform="translate(531,413)" d="m0 0h111v170h-123l2-5 6-12 50-1 8-4 4-6 1-3v-8l-4-8-7-4-6-1h-33l3-22 1-11v-22l-2-21-5-23z"/>
<path transform="translate(446,315)" d="m0 0 170 1 9 3 5 4 5 8 1 3v67h-110l-5-8-11-18-9-12-14-15-7-7-14-11-15-10-5-3z" fill="#FEFFFE"/>
<path transform="translate(85,316)" d="m0 0h98l1 11 2 4 6 2 39 1-12 12-8 7-12 14-12 18-9 15-1 1h-110v-67l6-10 7-6z"/>
<path transform="translate(401,86)" d="m0 0h21l19 5 12 5 13 9 10 9 8 11 8 16 4 13 1 5v24l-4 15-7 16-8 11-5 6-11 9-4 3h-2l-1-19-6-1-14 7-13 3h-19l-16-4-13-6h-4l-1 2-1 18-5-2-16-15-6-8-8-15-4-14-2-11v-14l3-16 5-14 9-15 15-15 14-9 15-6zm1 19-13 4-9 5-10 9-6 7-6 12-3 11v18l4 13 5 10 9 10 7 6 15 7 8 2h18l13-4 10-5 9-7 9-12 5-11 2-8v-21l-3-10-5-10-7-9-9-8-12-6-10-3z"/>
<path transform="translate(335,341)" d="m0 0h34l17 3 21 7 16 8 16 10 11 10 8 7 9 11 9 13 9 17 7 21 4 19 1 12v14l-2 17-4 17-6 17-10 19-12 16-12 13-12 10-14 9-16 8-16 6-19 4-8 1h-30l-19-3-24-8-20-11-11-8-10-9-13-13-12-17-8-16-5-12-5-19-3-21v-11l2-20 6-24 8-19 10-16 10-13 16-16 15-11 16-9 21-8 17-4zm7 11-15 2-19 5-12 5-17 9-14 11-10 9-9 10-10 15-8 16-6 17-3 17-1 12v13l3 21 4 15 8 18 8 14 9 11 9 10 9 8 16 11 16 8 18 6 15 3 9 1h18l17-2 15-4 16-6 16-9 12-9 12-11 10-11 10-15 8-17 5-16 3-14 1-8v-21l-3-20-6-20-8-16-9-14-12-14-12-11-13-9-17-9-17-6-17-4-8-1z" fill="#FEFFFE"/>
<path transform="translate(67,594)" d="m0 0h124l10 12 9 11 12 12 14 11 16 11 5 3v1h-172l-8-4-8-9-2-5z"/>
<path transform="translate(512,594)" d="m0 0h124v42l-3 8-4 5-8 5-3 1h-172l3-3 16-10 11-9 12-11 8-8 11-14z"/>
<path transform="translate(343,434)" d="m0 0h17l12 4 11 6 7 6 7 10 5 13 1 4v18l-4 12-6 10-6 7-10 7-9 4-9 2h-15l-12-3-11-6-5-4-9-11-5-11-2-9v-15l5-16 7-10 8-8 10-6z"/>
<path transform="translate(446,315)" d="m0 0 170 1 9 3 5 4 5 8 1 3v67h-110l-5-8-11-18-9-12-14-15-7-7-14-11-15-10-5-3zm78 10-5 3-4 6v43l5 7 7 2h79l7-2 4-5 1-5v-38l-2-6-4-4-4-1z"/>
<path transform="translate(1030,408)" d="m0 0h9l8 3 5 5 4 8 2 15v41l-2 16-5 10-5 4-6 2h-9l-10-5-3-2-1 7v37l-2 1-9-2v-139h7l4 2v2z" fill="#FEFFFE"/>
<path transform="translate(1678,372)" d="m0 0h9l2 1v138l-10-1v-9l-13 10-2 1h-9l-10-5-3-3-3-14v-59l3-12 4-6 7-4 4-1h9l10 4 3 2-1-3z" fill="#FEFFFE"/>
<path transform="translate(1265,374)" d="m0 0 10 1 3 1 12 25 15 33 2 2 15-31 13-29 1-1h11l1 1v135h-7l-4-1-1-109-16 34-8 16-4 3-5-1-5-8-8-16-11-23-2-5-2-1 1 6v104l-11 1z" fill="#FEFFFE"/>
<path transform="translate(339,423)" d="m0 0h25l13 4 11 6 10 9 7 8 8 17 2 10v18l-3 11-8 16-9 10-7 6-16 8-15 3h-11l-12-2-12-5-11-7-10-10-8-14-4-12-1-5v-16l4-15 7-14 11-12 10-7 8-4zm4 11-13 4-11 7-9 9-6 10-4 14v15l3 11 6 12 7 8 10 7 9 4 9 2h15l12-3 11-6 9-8 7-11 4-10 1-4v-18l-5-15-6-9-4-5-10-7-11-5-7-2z" fill="#FEFFFE"/>
<path transform="translate(341,413)" d="m0 0h21l12 3 12 5 11 7 12 12 7 11 5 12 3 12v23l-4 14-6 12-7 9-4 5-13 10-12 6-16 4h-21l-15-4-16-8-12-11-7-8-8-16-4-13v-24l4-14 7-14 8-10 8-8 11-7 11-5zm-2 10-13 4-11 6-10 9-8 10-5 11-4 15v16l4 15 7 13 9 10 10 8 13 6 7 2 8 1h11l15-3 16-8 10-9 6-7 8-16 3-11v-18l-3-12-8-16-9-10-7-6-16-8-8-2z"/>
<path transform="translate(402,105)" d="m0 0h21l15 5 9 6 10 9 7 11 4 10 1 5v21l-4 13-7 12-6 7-10 7-8 4-13 4h-18l-13-4-13-7-11-11-6-10-4-11-1-5v-18l5-16 7-11 10-10 10-6 11-4zm0 12-11 4-9 6-8 9-6 12-2 11 1 13 5 13 8 10 8 6 8 4 8 2h16l13-4 11-8 7-8 5-11 2-10v-8l-3-12-6-12-9-9-14-7-5-1z" fill="#FEFFFE"/>
<path transform="translate(1466,409)" d="m0 0 11 1 4 19 10 63 1 4 2-6 9-50 4-20 1-1h11l2 5 10 57 3 15h1l14-83 1-4 10 1-1 13-5 30-11 57-1 1h-16l-1-1-9-59-2-11v-5h-2l-2 21-7 45-2 10h-16l-2-7-17-93z" fill="#FEFFFE"/>
<path transform="translate(832,409)" d="m0 0h7l5 2 4 22 8 48 2 15h1l8-42 5-26 3-9h10l2 2 12 68 2 7 2-9 13-77 1-1 9 1v8l-7 43-10 50h-17l-8-52-4-24h-1l-6 44-5 31-1 1h-16l-2-8-5-29-11-60z" fill="#FEFFFE"/>
<path transform="translate(1393,408)" d="m0 0h13l8 3 3 4 1 10v86h-7l-4-2-1-6-7 4-7 5h-10l-6-4-2-5-1-10v-34l3-6 5-4 11-4 15-1-1-22-1-3-2-1h-10l-13 1-3-5v-3z" fill="#FEFFFE"/>
<path transform="translate(1799,408)" d="m0 0h15l5 3 4 5 1 20v75h-8l-3-1-1-7-4 2-9 6-2 1h-10l-6-5-2-9v-41l6-7 9-4 11-2h8l-1-26h-13l-13 1-3-7 2-2z" fill="#FEFFFE"/>
<path transform="translate(1593,408)" d="m0 0h15l6 3 3 4 1 13v83l-11-1v-8l-15 10h-10l-5-3-2-3-2-20v-26l4-8 8-5 7-2 15-1-1-22-1-4h-11l-14 1-2-4v-5z" fill="#FEFFFE"/>
<path transform="translate(961,408)" d="m0 0h14l6 3 3 3 1 3v94l-10-1-1-7-4 2-10 7h-10l-6-3-3-9-1-23v-12l2-10 5-5 5-3 8-2 15-1-2-25-2-1h-10l-13 1-3-5v-3l8-2z" fill="#FEFFFE"/>
<path transform="translate(527,337)" d="m0 0h79v37h-79z"/>
<path transform="translate(783,372)" d="m0 0h14l16 4-1 6-2 2-22-1-9 3-3 4-1 3v15l6 9 10 10 10 8 11 10 7 10 2 5 1 11-1 16-3 12-7 8-9 4-4 1h-16l-20-3v-11l17 1h18l8-4 3-6 1-13-1-11-5-9-12-12-8-7-10-9-7-10-4-11v-18l4-10 5-4z" fill="#FEFFFE"/>
<path transform="translate(1106,408)" d="m0 0h11l7 3 4 5 2 4 1 6 1 21v64l-11-1-1-69-1-15-3-6-3-2-8 1-14 5v86l-1 1-10-1-1-101h7l4 1v5z" fill="#FEFFFE"/>
<path transform="translate(1032,417)" d="m0 0 6 1 6 8 3 16v38l-2 12-4 7-4 3-4 1-8-3-8-4-1-2v-71l9-4z"/>
<path transform="translate(1660,417)" d="m0 0 8 1 11 5v71l-13 8-6 1-8-7-2-5v-60l3-8 5-5z"/>
<path transform="translate(406,137)" d="m0 0h13l8 4 5 6 3 7v11l-5 10-7 6-7 2h-9l-9-4-6-7-3-7v-11l5-10 9-6z" fill="#FEFFFE"/>
<path transform="translate(1440,372)" d="m0 0h8l3 1v139h-7l-4-2z" fill="#FEFFFE"/>
<path transform="translate(1194,372)" d="m0 0h7l4 1v139l-11-1z" fill="#FEFFFE"/>
<path transform="translate(1713,372)" d="m0 0h9l2 1v138l-10-1-1-59z" fill="#FEFFFE"/>
<path transform="translate(1871,408)" d="m0 0h9l1 1v6l-2 2-9 2-11 6h-3v86h-7l-4-1v-101h9l2 6v2l13-8z" fill="#FEFFFE"/>
<path transform="translate(1206,599)" d="m0 0h12l8 5 5 10v9l-3 8-7 6-8 2-11-2-6-5-4-8v-9l3-8 8-7z"/>
<path transform="translate(953,599)" d="m0 0h12l7 4 5 6 1 3v13l-4 8-7 5-9 1-8-2-8-7-2-4v-13l4-8 5-4z"/>
<path transform="translate(1466,592)" d="m0 0h12l10 2 6 7 1 2v10l-4 6-5 3h-2l10 14 6 9h-9l-8-10-7-10-3-1 1 2v19h-8z" fill="#FEFFFE"/>
<path transform="translate(1750,409)" d="m0 0h11l-2 5-20 40 1 5 14 29 10 22v1h-12l-11-23-11-24-3-7 1-5 17-35z" fill="#FEFFFE"/>
<path transform="translate(1156,409)" d="m0 0 10 1 1 1 1 101h-7l-4-1-1-2z" fill="#FEFFFE"/>
<path transform="translate(951,592)" d="m0 0h15l8 3 7 6 5 10v15l-5 10-8 7-12 3-11-1-8-4-7-8-3-8v-13l5-10 7-7zm2 7-8 5-4 6-1 3v13l4 6 6 5 8 2 9-1 8-6 3-7v-13l-4-7-6-5-3-1z" fill="#FEFFFE"/>
<path transform="translate(1204,592)" d="m0 0h15l10 5 7 8 3 10v7l-3 10-6 8-10 5-11 1-9-2-6-4-6-7-3-6-1-8 2-11 6-9 5-4zm2 7-6 3-6 7-2 6v9l4 8 6 5 11 2 8-2 7-6 3-8v-9l-5-10-8-5z" fill="#FEFFFE"/>
<path transform="translate(1351,591)" d="m0 0 10 1 8 4 5 5v3l-6 3-7-6-2-1h-12l-6 3h-2l-2 4-3 9v7l3 8 6 5 6 2 9-1 6-4 3-5v-2l-12-1v-7h21v9l-5 10-8 7-9 2-12-1-7-4-6-7-3-7v-16l5-10 8-7z" fill="#FEFFFE"/>
<path transform="translate(1606,590)" d="m0 0 3 3 13 30 9 20v2l-4 1-5-3-5-10h-22l-6 12h-8l2-6 16-34z" fill="#FEFFFE"/>
<path transform="translate(969,454)" d="m0 0h5v41l-15 8h-6l-1-1-1-8v-34l2-3z"/>
<path transform="translate(1807,454)" d="m0 0h5v41l-15 8-5 1-2-3-1-21v-15l1-7 4-2z"/>
<path transform="translate(1835,592)" d="m0 0h7l1 1v16l-1 4h23v-21h7l1 1v52h-8v-25h-22v25h-8l-1-52z" fill="#FEFFFE"/>
<path transform="translate(688,592)" d="m0 0h13l8 2 5 5 2 3v12l-6 7-4 2h-11v22h-8v-52z" fill="#FEFFFE"/>
<path transform="translate(1404,454)" d="m0 0 3 1v39l-14 8-8 1-1-1v-43l5-3z"/>
<path transform="translate(1602,454)" d="m0 0 5 1v39l-9 6-7 3h-5l-1-1-1-7v-35l2-3z"/>
<path transform="translate(804,592)" d="m0 0h7l1 1v20h23v-21h7l1 1-1 52h-7l-1-24-22-1v25h-8z" fill="#FEFFFE"/>
<path transform="translate(1717,592)" d="m0 0h13l9 2 5 4 3 7v7l-4 7-7 4-10 1-1 21h-7l-1-45z" fill="#FEFFFE"/>
<path transform="translate(361,291)" d="m0 0 106 1v12h-50l-21-6-23-4-11-1z"/>
<path transform="translate(379,239)" d="m0 0 9 3 13 3h22l15-4 7-1-1 16h-65z"/>
<path transform="translate(431,329)" d="m0 0 8 1 6 4 3 5 1 6-3 7-4 5-4 2h-8l-7-3-4-6-1-9 3-6 5-4z" fill="#FEFFFE"/>
<path transform="translate(266,612)" d="m0 0h7l7 4 4 5 1 2v8l-4 6-5 4-2 1h-8l-7-4-4-7v-8l4-7z" fill="#FEFFFE"/>
<path transform="translate(429,612)" d="m0 0h7l8 4 4 6v10l-7 8-4 2h-8l-6-4-4-5-1-8 3-7 6-5z" fill="#FEFFFE"/>
<path transform="translate(267,329)" d="m0 0 9 1 7 6 2 4v7l-3 6-6 5-2 1h-8l-6-3-4-5-1-3v-8l4-6 5-4z" fill="#FEFFFE"/>
<path transform="translate(510,471)" d="m0 0h10l6 4 4 8-1 8-3 5-6 4h-11l-7-6-2-5v-7l3-6 5-4z" fill="#FEFFFE"/>
<path transform="translate(183,471)" d="m0 0h10l5 3 4 5 1 9-3 7-5 4-2 1h-10l-6-4-3-4v-12l4-6z" fill="#FEFFFE"/>
<path transform="translate(1958,592)" d="m0 0h8l4 5 8 15 1 1 11-19 2-2h8l-2 5-13 22-1 2-1 24h-8l-1-4v-19l-12-22-4-6z" fill="#FEFFFE"/>
<path transform="translate(1070,592)" d="m0 0h31l1 1v6l-1 1h-12l1 3-1 42h-7v-45h-12z" fill="#FEFFFE"/>
<path transform="translate(537,542)" d="m0 0h39l3 2v8l-2 2-44 1 1-7z"/>
<path transform="translate(390,268)" d="m0 0h44v11l-1 1h-42l-1-1z"/>
<path transform="translate(409,148)" d="m0 0 9 1 5 6 1 5-3 7-6 4h-7l-6-5-2-5 1-6 4-5z"/>
<path transform="translate(195,315)" d="m0 0 61 1v2l-7 4-10 1h-45v-7z"/>
<path transform="translate(1158,375)" d="m0 0h8l4 4v8l-5 4h-6l-5-4-1-7z" fill="#FEFFFE"/>
<path transform="translate(1725,600)" d="m0 0h10l4 3v9l-4 4-8 1-2-1z"/>
<path transform="translate(697,599)" d="m0 0 8 1 4 5v6l-5 5h-9v-16z"/>
<path transform="translate(1474,600)" d="m0 0h9l4 4 1 6-5 6-9 1z"/>
<path transform="translate(182,297)" d="m0 0h24l1 1v6l-3 1h-22z"/>
<path transform="translate(1605,608)" d="m0 0 3 1 6 14v2h-16l3-9z"/>
<path transform="translate(186,482)" d="m0 0 5 1 1 5-1 1h-5l-2-5z"/>
<path transform="translate(512,482)" d="m0 0h5l1 1v5l-5 1-1-1z"/>
<path transform="translate(431,341)" d="m0 0 5 1 1 4-2 2-4-1-1-5z"/>
<path transform="translate(268,341)" d="m0 0 5 1v5l-4 1-2-2z"/>
<path transform="translate(431,624)" d="m0 0 5 1v5l-3 1-3-3z"/>
<path transform="translate(267,624)" d="m0 0h5l1 5-5 1-1-1z"/>
</svg>
